# File created by Blade
# Date/Time:  Tue Jan 27 19:38:14 2015
# Frame Rate: 120.000 fps
#------------------------------------------------------
:FULLY-SPECIFIED
:DEGREES
3318
root 4.565510 32.347842 2.354206 -3.368690 -12.637591 -0.566409
Spine 2.842531 -11.826562 -1.441147
Head 8.613089 13.473494 4.834447
LeftShoulder -13.544950 0.145539 28.968674
LeftArm -5.091438 32.279639 -103.871175
LeftForeArm 3.186662 -0.000000 16.574393
LeftHand 10.063182 0.000000 -3.239670
LeftHandThumb1 -26.253704 0.000000 33.147579
RightShoulder -29.668480 -18.724886 -20.188167
RightArm -21.283424 62.199913 79.700480
RightForeArm 33.394736 -0.000000 106.018877
RightHand 24.664283 -0.000000 -59.730203
RightHandThumb1 -24.326973 -0.000000 -32.862282
LeftUpLeg 10.207360 6.663198 -2.345052
LeftLeg 1.308985 -0.000000 -0.000000
LeftFoot -19.173057 15.923348 -22.588486
LeftToeBase 16.968074 -0.000000 -0.000000
RightUpLeg 4.076064 3.511113 4.148989
RightLeg 6.597317 -0.000000 -0.000000
RightFoot -12.003467 -12.020319 12.813184
RightToeBase 8.987551 -0.000000 -0.000000
3319
root 4.570051 32.347200 2.352088 -3.361676 -12.634659 -0.559143
Spine 2.860379 -11.804053 -1.434957
Head 8.590379 13.457538 4.795971
LeftShoulder -13.524345 0.099602 28.956696
LeftArm -5.133868 32.333757 -103.910279
LeftForeArm 3.026589 0.000000 16.532538
LeftHand 10.121352 -0.000000 -3.265108
LeftHandThumb1 -26.253704 0.000000 33.147579
RightShoulder -29.641871 -18.720600 -20.226563
RightArm -21.200340 62.153026 79.776643
RightForeArm 33.184402 -0.000000 106.048907
RightHand 24.761851 -0.000000 -59.893598
RightHandThumb1 -24.326973 -0.000000 -32.862282
LeftUpLeg 10.176251 6.652516 -2.363059
LeftLeg 1.338803 -0.000000 -0.000000
LeftFoot -19.172254 15.948424 -22.536048
LeftToeBase 16.953322 -0.000000 -0.000000
RightUpLeg 4.063770 3.491433 4.129655
RightLeg 6.595137 -0.000000 -0.000000
RightFoot -12.000483 -11.997018 12.819546
RightToeBase 8.938292 -0.000000 -0.000000
3320
root 4.577166 32.347389 2.349700 -3.343314 -12.655594 -0.560500
Spine 2.867823 -11.762479 -1.402366
Head 8.563358 13.461527 4.779889
LeftShoulder -13.505009 0.066396 28.926418
LeftArm -5.152972 32.327901 -103.931219
LeftForeArm 3.061254 -0.000000 16.478028
LeftHand 10.183179 -0.000000 -3.487763
LeftHandThumb1 -26.253704 0.000000 33.147579
RightShoulder -29.582417 -18.698396 -20.287925
RightArm -21.207707 62.140935 79.766137
RightForeArm 32.977730 -0.000000 106.066335
RightHand 24.828668 -0.000000 -60.017576
RightHandThumb1 -24.326973 -0.000000 -32.862282
LeftUpLeg 10.143829 6.601393 -2.388630
LeftLeg 1.365684 -0.000000 -0.000000
LeftFoot -19.224172 15.978020 -22.596297
LeftToeBase 17.083137 -0.000000 -0.000000
RightUpLeg 4.037926 3.431427 4.115114
RightLeg 6.592943 -0.000000 -0.000000
RightFoot -11.982586 -11.955752 12.758004
RightToeBase 8.953785 -0.000000 -0.000000
3321
root 4.582375 32.347158 2.349684 -3.337650 -12.681280 -0.569021
Spine 2.882842 -11.722192 -1.366964
Head 8.554875 13.454886 4.734191
LeftShoulder -13.492097 0.045613 28.902471
LeftArm -5.166563 32.382966 -103.967253
LeftForeArm 3.023041 -0.000000 16.416822
LeftHand 10.166081 0.000000 -3.542431
LeftHandThumb1 -26.253704 0.000000 33.147579
RightShoulder -29.530583 -18.711431 -20.335839
RightArm -21.160624 62.137648 79.820754
RightForeArm 32.844667 -0.000000 106.100838
RightHand 24.701503 -0.000000 -60.089940
RightHandThumb1 -24.326973 -0.000000 -32.862282
LeftUpLeg 10.138183 6.619927 -2.386533
LeftLeg 1.363168 -0.000000 -0.000000
LeftFoot -19.224522 15.982031 -22.595277
LeftToeBase 16.922466 -0.000000 -0.000000
RightUpLeg 4.033560 3.416820 4.108306
RightLeg 6.584601 -0.000000 -0.000000
RightFoot -11.962776 -11.916927 12.754457
RightToeBase 8.990271 -0.000000 -0.000000
3322
root 4.589088 32.347033 2.351524 -3.337179 -12.696186 -0.564826
Spine 2.899989 -11.683422 -1.347148
Head 8.541938 13.455891 4.715553
LeftShoulder -13.472520 0.019085 28.882502
LeftArm -5.185334 32.434211 -104.011336
LeftForeArm 3.013793 -0.000000 16.342429
LeftHand 10.106569 -0.000000 -3.646256
LeftHandThumb1 -26.253704 0.000000 33.147579
RightShoulder -29.497721 -18.702679 -20.374709
RightArm -21.162720 62.137467 79.807646
RightForeArm 32.802717 -0.000000 106.125796
RightHand 24.630997 0.000000 -60.070474
RightHandThumb1 -24.326973 -0.000000 -32.862282
LeftUpLeg 10.136968 6.610654 -2.408198
LeftLeg 1.364450 -0.000000 -0.000000
LeftFoot -19.225344 16.043026 -22.543208
LeftToeBase 17.017067 -0.000000 -0.000000
RightUpLeg 4.043789 3.394811 4.085316
RightLeg 6.558660 -0.000000 -0.000000
RightFoot -11.945943 -11.872509 12.752644
RightToeBase 8.940155 -0.000000 -0.000000
3323
root 4.593033 32.347525 2.349377 -3.314195 -12.715762 -0.572125
Spine 2.908806 -11.634018 -1.322833
Head 8.506686 13.426540 4.706245
LeftShoulder -13.458121 -0.016544 28.875025
LeftArm -5.190256 32.510742 -104.052761
LeftForeArm 2.971731 -0.000000 16.248507
LeftHand 10.071295 -0.000000 -3.597659
LeftHandThumb1 -26.253704 0.000000 33.147579
RightShoulder -29.499728 -18.688141 -20.373400
RightArm -21.142466 62.133624 79.799691
RightForeArm 32.876526 -0.000000 106.160994
RightHand 24.626952 0.000000 -60.015243
RightHandThumb1 -24.326973 -0.000000 -32.862282
LeftUpLeg 10.100956 6.620856 -2.410617
LeftLeg 1.399768 -0.000000 -0.000000
LeftFoot -19.268921 15.997358 -22.604358
LeftToeBase 17.110640 -0.000000 -0.000000
RightUpLeg 4.015861 3.397768 4.080652
RightLeg 6.557782 -0.000000 -0.000000
RightFoot -11.938906 -11.848521 12.777129
RightToeBase 8.996531 -0.000000 -0.000000
3324
root 4.597616 32.347634 2.349193 -3.300854 -12.721936 -0.577958
Spine 2.923896 -11.601920 -1.304064
Head 8.471465 13.411207 4.700887
LeftShoulder -13.446187 -0.037245 28.870281
LeftArm -5.186477 32.552416 -104.090411
LeftForeArm 3.008553 -0.000000 16.171811
LeftHand 10.010098 -0.000000 -3.612117
LeftHandThumb1 -26.253704 0.000000 33.147579
RightShoulder -29.494158 -18.670306 -20.392971
RightArm -21.143620 62.116033 79.775056
RightForeArm 33.004378 0.000000 106.184462
RightHand 24.588171 -0.000000 -59.942846
RightHandThumb1 -24.326973 -0.000000 -32.862282
LeftUpLeg 10.081989 6.638933 -2.413173
LeftLeg 1.400153 -0.000000 -0.000000
LeftFoot -19.246682 16.029963 -22.560593
LeftToeBase 16.970375 -0.000000 -0.000000
RightUpLeg 4.010484 3.380908 4.073728
RightLeg 6.538203 -0.000000 -0.000000
RightFoot -11.918736 -11.820805 12.779288
RightToeBase 8.944298 -0.000000 -0.000000
